<svg id="Layer_1" data-name="Layer 1" xmlns="http://www.w3.org/2000/svg" width="1297.729" height="798.282" viewBox="0 0 1297.729 798.282">
  <title>digitaldining-vector</title>
  <g>
    <path d="M1669.078-690.566c-0.131,112-76.289,154.29-167.533,154.183l-129.73-.152,0.008-5.189,40.238-18.98,0.3-258.6-40.2-19.074,0.006-5.189,129.73,0.152C1593.148-843.3,1669.209-803,1669.078-690.566Zm-47.135-.055c0.09-77.406-33.139-136.256-115.734-136.353l-51.027-.06-0.32,274.163,51.027,0.06C1587.188-552.716,1621.85-610.621,1621.943-690.622Z" transform="translate(-1302.191 843.563)"/>
    <path d="M1803.393-541.219l-0.008,5.189-99.893-.117,0.008-5.189L1733.787-556l0.2-167.352-30.252-15.17,0.006-5.189,69.637-12.459-0.234,200.217ZM1754.814-788.2a26.119,26.119,0,0,1-26.348-25.977,26.209,26.209,0,0,1,26.41-26.348,25.942,25.942,0,0,1,26.348,26.409C1781.207-799.841,1769.951-788.179,1754.814-788.2Z" transform="translate(-1302.191 843.563)"/>
    <path d="M2078.416-540.9l-0.008,5.189-99.891-.117,0.006-5.189,30.289-15.965,0.139-119.352c0.043-35.892-14.641-51.909-42.75-51.942-22.486-.026-37.633,9.9-58.408,25.877l-0.17,145.3,30.252,16.036-0.008,5.189-99.893-.117,0.008-5.189,30.289-15.965,0.193-166.055-30.252-15.171,0.006-5.189,68.771-12.46-0.045,38.919c32.463-26.34,49.775-38.861,79.18-38.827,42.379,0.05,62.236,29.046,62.191,68.4l-0.152,130.595Z" transform="translate(-1302.191 843.563)"/>
    <path d="M2217.238-552.843c25.514,0.03,48.451-16.376,61.457-44.037l13.4,6.07c-17.346,41.494-48.07,60.484-85.693,60.44-32.432-.038-97.705-21.3-97.6-109.087,0.09-78.271,47.271-116.27,96.137-116.212,67.459,0.079,87.723,51.995,87.676,91.778l-0.012,11.244-141.84-.166,0,2.594C2150.672-577.138,2189.563-552.875,2217.238-552.843ZM2203.623-743.13c-33.73-.04-48.045,38-51.98,76.047l101.621,0.119C2253.721-688.153,2248.6-743.078,2203.623-743.13Z" transform="translate(-1302.191 843.563)"/>
    <path d="M2333.547-540.6l30.289-15.965,0.193-166.055-30.252-15.17,0.006-5.189,68.771-12.46,0.361,60.109c15.17-28.955,31.207-60.5,66.234-60.463,6.92,0.008,14.7,1.747,22.48,4.783l-10.453,64.42-5.189.426-22.439-41.107c-14.7-5.207-42.418,34.112-50.658,53.995l0.3,115.028,40.2,17.777-0.006,5.189-109.84-.128Z" transform="translate(-1302.191 843.563)"/>
    <path d="M2516.887-530.006c-14.7-.017-27.662-12.573-27.645-26.843,0.018-15.135,13-27.661,27.707-27.644a27.871,27.871,0,0,1,27.645,27.708C2544.576-542.515,2532.021-529.989,2516.887-530.006Z" transform="translate(-1302.191 843.563)"/>
    <path d="M1599.453-315.868c-0.131,112-76.289,154.29-167.531,154.183l-129.73-.152,0.006-5.189,40.238-18.979,0.3-258.6-40.193-19.074,0.006-5.189,129.73,0.152C1523.523-468.606,1599.586-428.3,1599.453-315.868Zm-47.135-.055c0.092-77.406-33.139-136.256-115.732-136.352l-51.027-.06-0.32,274.163,51.027,0.06C1517.563-178.017,1552.225-235.923,1552.318-315.923Z" transform="translate(-1302.191 843.563)"/>
    <path d="M1733.768-166.521l-0.006,5.189-99.893-.117,0.006-5.189,30.287-14.667,0.2-167.352-30.254-15.17,0.006-5.189,69.637-12.459-0.234,200.217ZM1685.191-413.5a26.116,26.116,0,0,1-26.348-25.977,26.209,26.209,0,0,1,26.408-26.348,25.941,25.941,0,0,1,26.348,26.41C1711.584-425.142,1700.326-413.479,1685.191-413.5Z" transform="translate(-1302.191 843.563)"/>
    <path d="M1898.973-181.462c52.309,15.2,73.479,29.491,73.443,61.059-0.057,47.135-51.549,75.184-104.3,75.122-56.65-.066-108.51-26.938-119.275-65.437l71.85-57L1772.7-181.61l-1.291-5.191,52.814-49.668c-31.557-10.848-53.582-35.089-53.541-69.252,0.057-48,43.332-75.625,91.332-75.569,18.162,0.021,34.59,3.933,49.715,12.166l65.73,0.077-0.018,14.271-45.838-.054c13.391,13.421,19.859,29.861,19.836,49.321-0.055,46.7-43.332,75.625-89.6,75.571a174.055,174.055,0,0,1-27.24-2.194l-20.787,25.921Zm-107.748,61.279c2.986,35.031,34.957,60.582,76.9,60.631,44.539,0.052,70.072-17.215,70.107-47.053,0.027-22.919-15.529-31.586-58.328-43.744l-49.279-14.328ZM1862-370.047c-31.135-.036-46.732,26.324-46.777,64.378-0.043,36.325,15.494,63.154,46.627,64.487,30.705-1.261,45.438-26.757,45.48-64.379C1907.375-340.588,1892.707-370.011,1862-370.047Z" transform="translate(-1302.191 843.563)"/>
    <path d="M2100.9-166.091l-0.006,5.189L2001-161.019l0.006-5.189,30.287-14.667,0.2-167.352-30.254-15.17,0.006-5.189,69.637-12.459-0.234,200.217Zm-48.576-246.977a26.116,26.116,0,0,1-26.348-25.977,26.209,26.209,0,0,1,26.408-26.348,25.941,25.941,0,0,1,26.348,26.409C2078.717-424.713,2067.459-413.05,2052.324-413.068Z" transform="translate(-1302.191 843.563)"/>
    <path d="M2261.357-190.119l8.639,9.091c-12.125,13.824-29.869,25.479-51.922,25.453-38.92-.045-53.6-17.793-53.539-70.982l0.158-136.217-33.3-.039,0.016-14.27,33.3,0.039,0.049-41.514,39.369-14.657L2204.063-377l51.891,0.061-0.016,14.27-51.893-.061-0.162,138.812c-0.047,39.784,5.133,49.3,26.32,49.328C2244.041-174.572,2253.564-182.345,2261.357-190.119Z" transform="translate(-1302.191 843.563)"/>
    <path d="M2484.9-168.236l-0.008,5.189-64.008,5.979,0.041-34.595c-20.346,18.138-40.258,36.278-72.258,36.24-28.975-.034-61.814-19.964-61.768-61.046,0.021-17.729,8.689-35.017,18.648-45.816l115.068-34.027,0.025-22.054c0.025-22.054-9.889-50.174-44.051-50.214-36.756-.043-42.406,23.735-41.57,49.682l-38.5,7.738c-9.031-43.253,40.729-69.142,81.811-69.526,46.271-.378,79.979,18.256,79.926,63.662L2458.1-182.538Zm-119.77-12.681c22.486,0.026,33.74-9.907,55.381-25.017l0.09-77.406-88.254,32.329c-3.906,11.239-4.344,16.428-4.359,28.536C2327.961-199.555,2343.074-180.943,2365.129-180.917Z" transform="translate(-1302.191 843.563)"/>
    <path d="M2599.92-165.507l-0.006,5.189-99.893-.117,0.006-5.189,30.287-14.667,0.326-277.623-30.254-15.17,0.006-5.189,69.637-12.46-0.363,310.488Z" transform="translate(-1302.191 843.563)"/>
  </g>
</svg>
