<svg id="Layer_1" data-name="Layer 1" xmlns="http://www.w3.org/2000/svg" width="690.421" height="445.873" viewBox="0 0 690.421 445.873">
  <title>zevv-logo</title>
  <g>
    <path d="M382.7,660.022v-17.98l55.8-56.885H386.261v-22.32h91.915V580.2L422.066,637.7h57.815v22.32H382.7Z" transform="translate(-259.774 -388.141)"/>
    <path d="M499.566,660.022V562.837h89.59v22.01H527v16.585h48.36v19.84H527v16.74h65.255v22.01h-92.69Z" transform="translate(-259.774 -388.141)"/>
    <path d="M639.064,660.022l-38.9-97.186H631l26.2,75.485,26.814-75.485h29.605l-40.146,97.186H639.064Z" transform="translate(-259.774 -388.141)"/>
    <path d="M760.273,660.022l-38.905-97.186h30.845l26.2,75.485,26.814-75.485h29.605l-40.146,97.186H760.273Z" transform="translate(-259.774 -388.141)"/>
  </g>
</svg>
